<?xml version="1.0" standalone="no"?>
<!DOCTYPE svg PUBLIC "-//W3C//DTD SVG 1.1//EN" "http://www.w3.org/Graphics/SVG/1.1/DTD/svg11.dtd" >
<svg xmlns="http://www.w3.org/2000/svg">
<metadata>
This is a custom SVG webfont generated by Font Squirrel.
Copyright   : Copyright  1988 1990 1993 2003 Linotype Library GmbH wwwlinotypecom All rights reserved Copyright  1988 1990 1993 Adobe Systems Incorporated All Rights Reserved
Designer    : Linotype Library GmbH
Foundry     : Linotype Library GmbH
Foundry URL : httpwwwLinotypecom
</metadata>
<defs>
<font id="webfontOlwweK5w" horiz-adv-x="1368" >
<font-face units-per-em="2048" ascent="1462" descent="-586" />
<missing-glyph horiz-adv-x="569" />
<glyph unicode=" "  horiz-adv-x="569" />
<glyph unicode="&#x09;" horiz-adv-x="569" />
<glyph unicode="&#xa0;" horiz-adv-x="569" />
<glyph unicode="!" horiz-adv-x="606" d="M256 379l-37 696v387h164v-387l-37 -696h-90zM215 0l-2 225h176l2 -225h-176z" />
<glyph unicode="&#x22;" horiz-adv-x="833" d="M510 950v512h115v-512h-115zM205 950v512h114v-512h-114z" />
<glyph unicode="#" d="M805 553l45 315h-291l-45 -315h291zM336 0l63 463h-233v90h246l45 315h-234v90h246l66 463h102l-66 -463h291l66 463h102l-65 -463h233v-90h-246l-45 -315h234v-90h-246l-64 -463h-102l64 463h-291l-64 -463h-102z" />
<glyph unicode="$" d="M627 106v560q-100 16 -163 29.5t-142.5 42t-124.5 65.5t-77 98.5t-32 142.5q0 106 45 186.5t123 126.5t170 68.5t201 24.5v125h114v-125q109 -6 198 -31.5t166 -75t122 -133.5t49 -196h-152q-12 150 -112.5 216t-270.5 81v-523q311 -41 444.5 -130t133.5 -250 q0 -121 -50 -209t-136 -136.5t-182.5 -71t-209.5 -24.5v-198h-114v198q-582 29 -582 502h152q0 -334 430 -363zM741 649v-543q176 0 295 66t119 209q0 106 -96.5 172.5t-317.5 95.5zM627 811v500q-375 -14 -375 -252q0 -111 97.5 -165t277.5 -83z" />
<glyph unicode="%" horiz-adv-x="1972" d="M483.5 655q-159.5 0 -259 103.5t-99.5 294t99.5 294t259 103.5t259 -103.5t99.5 -294t-99.5 -294t-259 -103.5zM1485 -33q-160 0 -259.5 103.5t-99.5 294t99.5 294t259.5 103.5t259 -103.5t99 -294t-99 -294t-259 -103.5zM483.5 758q110.5 0 171 77.5t60.5 217 t-60.5 217.5t-171 78t-171 -78t-60.5 -217.5t60.5 -217t171 -77.5zM434 -33l975 1483h121l-975 -1483h-121zM1484.5 70q110.5 0 171 77.5t60.5 217t-60.5 217t-171 77.5t-171 -77.5t-60.5 -217t60.5 -217t171 -77.5z" />
<glyph unicode="&#x26;" horiz-adv-x="1593" d="M938 1157q0 78 -56.5 128t-172.5 50q-82 0 -143.5 -47t-61.5 -123q0 -51 32.5 -106t145.5 -168q256 108 256 266zM1430 0l-193 182q-80 -100 -223.5 -157.5t-317.5 -57.5q-268 0 -410.5 120t-142.5 316q0 150 94.5 248.5t311.5 186.5q-94 84 -139 155.5t-45 165.5 q0 135 98 219t258 84q182 0 269 -89t87 -208q0 -223 -305 -354l449 -424q29 41 50 116t27 130h140q0 -66 -31 -161t-86 -177l315 -295h-206zM1141 270l-506 480q-176 -68 -258 -151t-82 -204q0 -127 103.5 -214t306.5 -87q135 0 237.5 39t198.5 137z" />
<glyph unicode="'" horiz-adv-x="569" d="M225 950v512h115v-512h-115z" />
<glyph unicode="(" horiz-adv-x="720" d="M535 1462h114q-70 -98 -110.5 -163.5t-101 -188.5t-90.5 -267.5t-30 -306t30 -306t90.5 -267.5t101.5 -188.5t110 -163.5h-114q-16 16 -46 52t-90.5 128t-108.5 194.5t-86 252t-38 299t38 299t86 252t108.5 194.5t90.5 128t46 52z" />
<glyph unicode=")" horiz-adv-x="720" d="M182 -389h-112q70 100 109.5 164.5t100 188.5t90 267.5t29.5 305t-29.5 306t-90 267.5t-101.5 188.5t-110 163.5h114q16 -16 46 -52t90.5 -128t108.5 -194.5t86 -252t38 -299t-38 -299t-86 -252t-108.5 -194.5t-90.5 -128t-46 -52z" />
<glyph unicode="*" horiz-adv-x="872" d="M377 1188v274h115v-274l260 98l41 -100l-271 -103l189 -211l-78 -73l-199 223l-198 -223l-78 73l188 211l-270 103l41 100z" />
<glyph unicode="+" horiz-adv-x="1228" d="M563 0l-2 467h-467v102h467v467h103v-467h466v-102h-466l2 -467h-103z" />
<glyph unicode="," horiz-adv-x="569" d="M197 0l-2 225h176v-229q0 -229 -195 -283v78q57 27 74.5 74t19.5 135h-73z" />
<glyph unicode="-" horiz-adv-x="909" d="M139 485v152h623v-152h-623z" />
<glyph unicode="." horiz-adv-x="569" d="M197 0l-2 225h176l2 -225h-176z" />
<glyph unicode="/" horiz-adv-x="833" d="M6 -37l703 1536h114l-702 -1536h-115z" />
<glyph unicode="0" d="M682 1450q276 0 437 -184.5t161 -558.5q0 -371 -161 -555.5t-437 -184.5t-437 184.5t-161 555.5q0 375 161 559t437 184zM682 1323q-446 0 -446 -616q0 -612 446 -612.5t446 612.5q0 616 -446 616z" />
<glyph unicode="1" horiz-adv-x="909" d="M483 0l-2 1065h-442v115h100q188 0 262 49t105 221h127l2 -1450h-152z" />
<glyph unicode="2" d="M1214 139l3 -139h-1111q8 74 26 129t67 130t151.5 152.5t257.5 159.5q260 137 349.5 221.5t89.5 221.5q0 156 -94.5 232.5t-268.5 76.5q-117 0 -197.5 -33t-121.5 -91t-58.5 -120.5t-19.5 -142.5h-152q0 262 144.5 388t406.5 126q139 0 242.5 -39t160 -103.5t83 -139 t26.5 -156.5q0 -90 -24.5 -160t-80 -124t-108.5 -91t-141 -86q-313 -170 -419 -248t-132 -164h921z" />
<glyph unicode="3" d="M575 688v127h99q180 0 270 53.5t90 188.5q0 131 -93 198.5t-251 67.5q-401 0 -401 -350h-152q4 209 142.5 343t410.5 134q96 0 181 -21.5t158 -66.5t115 -124t42 -181q0 -106 -71 -190.5t-195 -100.5v-4q139 -12 230 -108.5t91 -252.5q0 -117 -44 -202.5t-124 -135 t-180 -73t-221 -23.5q-281 0 -425.5 126t-146.5 368h152q8 -195 117.5 -281t324.5 -86q211 0 303.5 87t92.5 216q0 166 -104.5 228.5t-287.5 62.5h-123z" />
<glyph unicode="4" d="M856 0l-2 356h-770v140l776 954h133v-967h271v-127h-271l2 -356h-139zM854 483v754h-4l-614 -754h618z" />
<glyph unicode="5" d="M145 668l144 749h854v-127h-740l-100 -469l4 -4q143 139 371 139q262 0 408.5 -134t146.5 -359q0 -86 -26.5 -166t-87 -158t-177.5 -125t-276 -47q-260 0 -401.5 116t-166.5 325h152q27 -158 127 -236t289 -78q186 0 300.5 93.5t114.5 275.5q0 174 -111.5 270t-314.5 96 q-229 0 -368 -167z" />
<glyph unicode="6" d="M287 463q0 -147 103.5 -258t307.5 -111q172 0 288 98.5t116 266.5q0 158 -108.5 261t-295.5 103q-119 0 -203.5 -35.5t-127.5 -93t-61.5 -115t-18.5 -116.5zM1217 1081h-152q-10 115 -102.5 178.5t-264.5 63.5q-217 0 -328.5 -147.5t-119.5 -485.5l4 -4q150 264 444 264 q254 0 404.5 -130t150.5 -363.5t-156.5 -361.5t-398.5 -128q-588 0 -587 692q0 371 144 581t443 210q248 0 376.5 -106.5t142.5 -262.5z" />
<glyph unicode="7" horiz-adv-x="1214" d="M1128 1417v-139q-72 -66 -159.5 -177.5t-189 -274t-184.5 -382t-114 -444.5h-164q39 334 245 707.5t421 570.5h-930v139h1075z" />
<glyph unicode="8" d="M682 836q180 0 272.5 64.5t92.5 170.5q0 137 -104.5 194.5t-260.5 57.5t-260.5 -57.5t-104.5 -194.5q0 -106 92.5 -170.5t272.5 -64.5zM96 395q0 299 342 379v4q-37 10 -59.5 18.5t-67.5 33t-72.5 54t-50 81t-22.5 114.5q0 66 23.5 125.5t76.5 117.5t159.5 93t256 35 t256 -35t160 -93t77 -117.5t23.5 -125.5q0 -63 -22.5 -114.5t-50 -81t-72.5 -54t-67.5 -33t-59.5 -18.5v-4q342 -80 342 -379q0 -80 -29 -150.5t-91.5 -136t-182 -103.5t-283.5 -38t-283.5 38t-182 103.5t-91.5 136t-29 150.5zM248 395q0 -152 118.5 -226.5t315.5 -74.5 t315.5 75t118.5 226q0 156 -122 235t-312 79t-312 -79t-122 -235z" />
<glyph unicode="9" d="M1077 954q0 147 -103.5 258t-307.5 111q-172 0 -288 -98.5t-116 -266.5q0 -160 108.5 -262t295.5 -102q119 0 203.5 36t127.5 93t61.5 114.5t18.5 116.5zM147 336h152q10 -115 102.5 -178.5t264.5 -63.5q219 0 329.5 147.5t118.5 485.5l-4 4q-150 -264 -444 -264 q-254 0 -404.5 130t-150.5 363.5t156.5 361.5t398.5 128q588 0 587 -692q0 -371 -144 -581t-443 -210q-248 0 -376.5 106.5t-142.5 262.5z" />
<glyph unicode=":" horiz-adv-x="569" d="M195 811v225h176v-225h-176zM197 0l-2 225h176l2 -225h-176z" />
<glyph unicode=";" horiz-adv-x="569" d="M193 811v225h176v-225h-176zM197 0l-4 225h176v-229q0 -229 -195 -283v78q57 27 73.5 72t22.5 137h-73z" />
<glyph unicode="&#x37e;" horiz-adv-x="569" d="M193 811v225h176v-225h-176zM197 0l-4 225h176v-229q0 -229 -195 -283v78q57 27 73.5 72t22.5 137h-73z" />
<glyph unicode="&#x3c;" horiz-adv-x="1228" d="M94 461v114l1036 478v-115l-909 -420l909 -420v-114z" />
<glyph unicode="=" horiz-adv-x="1228" d="M94 268v103h1036v-103h-1036zM94 666v102h1036v-102h-1036z" />
<glyph unicode="&#x3e;" horiz-adv-x="1228" d="M1004 518l-910 420v115l1036 -478v-114l-1036 -477v114z" />
<glyph unicode="?" horiz-adv-x="1327" d="M537 0l-2 225h176l2 -225h-176zM260 1006h-151q0 215 137 354t393 139q221 0 375.5 -107.5t154.5 -314.5q0 -133 -62.5 -212t-229.5 -195q-129 -90 -157 -138.5t-28 -152.5h-139q0 158 37 213t231 201l78 59t57.5 56t48 78t13.5 91q0 129 -107.5 206t-271.5 77 q-190 0 -282.5 -95t-96.5 -259z" />
<glyph unicode="@" horiz-adv-x="1638" d="M1106 1012l49 137h115l-203 -610q-25 -80 -25 -123q0 -53 54 -54q125 0 236.5 169t111.5 335q0 238 -175 390.5t-413 152.5q-283 0 -474.5 -200.5t-191.5 -477.5q0 -281 195 -479.5t471 -198.5q162 0 313.5 80t231.5 209h115q-98 -174 -278.5 -276.5t-381.5 -102.5 q-326 0 -547 225.5t-221 542.5q0 319 225.5 543.5t542.5 224.5q291 0 490.5 -182t199.5 -457q0 -231 -151.5 -409.5t-319.5 -178.5q-59 0 -97 36t-38 106h-4q-127 -141 -277 -142q-127 0 -203.5 87t-76.5 219q0 229 143.5 418.5t358.5 189.5q162 0 225 -174zM506 588 q0 -213 170 -213q98 0 186 88t133 203.5t45 214.5q0 104 -38.5 153t-129.5 49q-102 0 -189 -82.5t-132 -196.5t-45 -216z" />
<glyph unicode="A" horiz-adv-x="1478" d="M1315 0l-197 444h-770l-196 -444h-164l661 1462h176l666 -1462h-176zM1057 584l-322 727l-325 -727h647z" />
<glyph unicode="B" horiz-adv-x="1517" d="M285 688v-549h637q156 0 250 67.5t94 211.5q0 150 -81 210t-227 60h-673zM285 1323v-496h600q164 0 250 60.5t86 199.5q0 236 -285 236h-651zM135 0l-2 1462h832q205 0 306 -101t101 -267q0 -113 -63.5 -199t-188.5 -115v-4q145 -23 227.5 -119t82.5 -239 q0 -109 -43.5 -193t-115 -131t-153.5 -70.5t-170 -23.5h-813z" />
<glyph unicode="C" horiz-adv-x="1669" d="M1432 557h151q-25 -254 -221.5 -424t-501.5 -170q-358 0 -568 208t-210 560q0 106 25.5 209.5t84 206t145.5 179.5t222 125t301 48q125 0 239.5 -29.5t217 -90t170 -166t84.5 -244.5h-152q-31 197 -187.5 294t-371.5 97q-283 0 -448.5 -160t-165.5 -469 q0 -127 34.5 -236.5t105.5 -199.5t192.5 -141.5t281.5 -51.5q492 0 572 455z" />
<glyph unicode="D" horiz-adv-x="1593" d="M285 1323v-1184h553q219 0 354 139.5t135 452.5q0 592 -489 592h-553zM135 0l-2 1462h711q315 0 481 -191.5t166 -539.5q0 -322 -163 -526.5t-460 -204.5h-733z" />
<glyph unicode="E" horiz-adv-x="1402" d="M160 0l-2 1462h1163v-139h-1012v-496h975v-139h-975v-549h1028l2 -139h-1179z" />
<glyph unicode="F" horiz-adv-x="1251" d="M135 0l-2 1462h1096v-139h-944v-496h897v-139h-897l2 -688h-152z" />
<glyph unicode="G" horiz-adv-x="1744" d="M1493 0l-23 276h-4q-115 -164 -256 -238.5t-352 -74.5q-365 0 -565.5 209t-200.5 559q0 338 213 553t569 215q295 0 485.5 -143.5t221.5 -356.5h-164q-45 178 -190.5 269.5t-352.5 91.5q-295 0 -456.5 -168t-161.5 -461q0 -299 150.5 -464t439.5 -165q539 0 622 512h-536 v140h676l2 -754h-117z" />
<glyph unicode="H" horiz-adv-x="1630" d="M135 0l-2 1462h152v-618h1056v618h152l2 -1462h-152l-2 705h-1056l2 -705h-152z" />
<glyph unicode="I" horiz-adv-x="454" d="M152 0l-2 1462h151l2 -1462h-151z" />
<glyph unicode="J" horiz-adv-x="1138" d="M201 479v-53q-4 -336 323 -336q164 0 245 79t81 282v1011h151v-1052q0 -205 -121.5 -326t-363.5 -121q-129 0 -222 38t-139 89t-72 131t-30 132.5t-4 125.5h152z" />
<glyph unicode="K" horiz-adv-x="1517" d="M160 0l-2 1462h151v-790l944 790h220l-725 -604l776 -858h-215l-680 756l-320 -262l2 -494h-151z" />
<glyph unicode="L" horiz-adv-x="1214" d="M135 0l-2 1462h152v-1323h927l2 -139h-1079z" />
<glyph unicode="M" horiz-adv-x="2009" d="M1006 190l651 1272h215l2 -1462h-152l-2 1264h-4l-643 -1264h-139l-645 1266h-4l2 -1266h-152l-2 1462h221z" />
<glyph unicode="N" horiz-adv-x="1630" d="M135 0l-2 1462h182l1022 -1249h4v1249h152l2 -1462h-176l-1030 1249h-4l2 -1249h-152z" />
<glyph unicode="O" horiz-adv-x="1744" d="M240 731q0 -160 52 -283.5t142 -197.5t200.5 -111t235.5 -37t236 37t201 111t142 197.5t52 283.5t-52 284t-142 197.5t-201 110.5t-236 37t-235.5 -37t-200.5 -110.5t-142 -197.5t-52 -284zM76 731.5q0 186.5 65.5 336t177 242.5t252 141t300 48t300 -48t252 -141 t177 -242.5t65.5 -336t-65.5 -336t-177 -243t-252 -141.5t-300 -48t-300 48t-252 141.5t-177 243t-65.5 336z" />
<glyph unicode="P" horiz-adv-x="1441" d="M160 0l-2 1462h788q188 0 314 -102.5t126 -319.5q0 -209 -131 -317.5t-376 -108.5h-570l2 -614h-151zM309 1323v-569h586q180 0 254 73.5t74 212.5q0 156 -78 219.5t-219 63.5h-617z" />
<glyph unicode="Q" horiz-adv-x="1744" d="M1624 -29l-80 -100l-252 195q-178 -102 -422 -103q-160 0 -300 48t-251.5 141.5t-177 243t-65.5 336t65.5 336t177 242.5t252 141t300 48t300 -48t252 -141t177 -242.5t65.5 -336.5q0 -387 -260 -590zM973 311l80 101l229 -176q219 164 219 495q0 160 -52 284t-142 197.5 t-201 110.5t-236 37t-235.5 -37t-200.5 -110.5t-142 -197.5t-52 -284t52 -283.5t142 -197.5t200.5 -111t235.5 -37q164 0 293 62z" />
<glyph unicode="R" horiz-adv-x="1517" d="M309 1323v-541h641q315 0 316 285q0 256 -301 256h-656zM160 0l-2 1462h796q211 0 343.5 -91t132.5 -304q0 -123 -76 -223.5t-211 -130.5v-4q145 -23 198.5 -117t61.5 -289q18 -274 53 -303h-164q-37 37 -41 299q-4 193 -82.5 268.5t-271.5 75.5h-588l2 -643h-151z" />
<glyph unicode="S" d="M1276 1044h-152q-29 315 -458 316q-182 0 -298 -68.5t-116 -189.5q0 -70 30.5 -117t107.5 -80t161 -53.5t235 -44.5q94 -14 160 -29.5t141.5 -45.5t121.5 -68.5t78 -101t32 -142.5q0 -129 -54.5 -222.5t-146.5 -142.5t-192.5 -70.5t-216.5 -21.5q-299 0 -473.5 121 t-190.5 399h152q18 -215 149 -298t363 -83q121 0 215 24t162.5 91.5t68.5 175.5q0 51 -16.5 91t-55.5 68t-72.5 46t-103 34.5t-109.5 23.5l-124 22q-35 6 -51 8q-276 43 -405.5 131t-129.5 258q0 152 88 251t212 136t278 37q94 0 178 -13t162.5 -47t136 -84t94.5 -130.5 t39 -180.5z" />
<glyph unicode="T" horiz-adv-x="1290" d="M569 0l-2 1323h-571v139h1296v-139h-573l2 -1323h-152z" />
<glyph unicode="U" horiz-adv-x="1593" d="M1448 1462v-897q0 -92 -11.5 -166.5t-52.5 -159.5t-108.5 -142.5t-191 -95.5t-289.5 -38t-290 38t-191.5 95.5t-108.5 142.5t-52.5 159.5t-11.5 166.5v897h152v-897q0 -137 41 -232t115.5 -143.5t157.5 -68t187.5 -19.5t187.5 19.5t157.5 68t115.5 143.5t41 232v897h152z " />
<glyph unicode="V" horiz-adv-x="1402" d="M709 172l559 1290h164l-646 -1462h-163l-654 1462h174z" />
<glyph unicode="W" horiz-adv-x="2162" d="M1610 201l409 1261h164l-489 -1462h-176l-443 1249h-4l-432 -1249h-176l-486 1462h168l406 -1261h4l432 1261h187l432 -1261h4z" />
<glyph unicode="X" horiz-adv-x="1366" d="M-16 0l591 741l-569 721h203l475 -602l490 602h188l-574 -712l594 -750h-200l-502 629l-502 -629h-194z" />
<glyph unicode="Y" horiz-adv-x="1404" d="M627 0l-2 614l-656 848h195l536 -696l537 696h197l-658 -848l2 -614h-151z" />
<glyph unicode="Z" horiz-adv-x="1327" d="M10 0l-2 139l1086 1184h-1016v139h1220v-139l-1091 -1184h1108l2 -139h-1307z" />
<glyph unicode="[" horiz-adv-x="720" d="M219 -389v1851h402v-114h-263v-1622h263v-115h-402z" />
<glyph unicode="\" horiz-adv-x="833" d="M711 -37l-707 1536h115l706 -1536h-114z" />
<glyph unicode="]" horiz-adv-x="720" d="M498 1462v-1851h-402v115h262v1622h-262v114h402z" />
<glyph unicode="^" horiz-adv-x="1228" d="M1022 489l-410 801l-409 -801h-115l473 928h103l473 -928h-115z" />
<glyph unicode="_" horiz-adv-x="1024" d="M0 -256v102h1022v-102h-1022z" />
<glyph unicode="`" horiz-adv-x="376" d="M82 1518l235 -291h-124l-295 291h184z" />
<glyph unicode="a" horiz-adv-x="1251" d="M246 737h-140q18 178 133 269.5t375 91.5t374 -79t114 -237v-557q0 -66 19.5 -92.5t64.5 -26.5q27 0 80 5v-103q-82 -16 -127 -16q-55 0 -90 16.5t-50.5 48t-19.5 58t-4 65.5h-4q-27 -39 -52.5 -65.5t-81 -65.5t-148.5 -60.5t-216 -21.5q-100 0 -189 28t-157 103.5 t-68 188.5q0 82 34 143.5t84 95t127 55t139.5 28.5t146.5 12q172 8 247.5 21t100.5 39t25 81q0 115 -81 162t-272 47q-184 0 -270 -53.5t-94 -180.5zM963 412v161q-45 -31 -134.5 -44t-339.5 -35q-139 -12 -208.5 -58.5t-69.5 -138.5q0 -215 307 -215q170 0 307.5 88 t137.5 242z" />
<glyph unicode="b" horiz-adv-x="1366" d="M258 532q0 -203 126 -320.5t321 -117.5q215 0 321.5 129t106.5 309q0 199 -122 319t-306 120q-217 0 -332 -129.5t-115 -309.5zM117 0l-2 1475h151v-623h4q55 106 172 176t263 70q283 0 431 -163t148 -403q0 -104 -30.5 -199t-95 -179t-181.5 -135.5t-272 -51.5 q-172 0 -286 79t-149 167h-4l2 -213h-151z" />
<glyph unicode="c" horiz-adv-x="1251" d="M1047 381h151q-8 -47 -28.5 -96t-62.5 -108.5t-99.5 -104.5t-147.5 -75t-201 -30q-285 0 -442.5 154.5t-157.5 410.5q0 252 155 409t445 157q131 0 232.5 -37t161 -97.5t93.5 -122t44 -124.5h-152q-66 254 -379 254q-219 0 -333.5 -122t-114.5 -317q0 -201 117.5 -319.5 t330.5 -118.5q160 0 258.5 78t129.5 209z" />
<glyph unicode="d" horiz-adv-x="1366" d="M1098 0l-2 213h-4q-43 -92 -153 -169t-282 -77q-156 0 -272.5 51.5t-181 135.5t-95 179t-30.5 199q0 240 148.5 403t430.5 163q145 0 262 -70t173 -176h4v623h151l2 -1475h-151zM1104 532q0 180 -115 309.5t-332 129.5q-184 0 -306 -120t-122 -319q0 -180 106.5 -309 t321.5 -129q195 0 321 117.5t126 320.5z" />
<glyph unicode="e" horiz-adv-x="1327" d="M1079 340h152q-51 -162 -190.5 -267.5t-383.5 -105.5q-156 0 -272.5 51.5t-181 135.5t-95 179t-30.5 199q0 240 148.5 403t430.5 163q113 0 211.5 -28t189.5 -91.5t145 -187t54 -295.5h-1028q0 -172 116 -287t312 -115q184 0 281.5 59.5t140.5 186.5zM229 610h877 q-31 184 -151.5 272.5t-286.5 88.5q-164 0 -290 -89.5t-149 -271.5z" />
<glyph unicode="f" horiz-adv-x="645" d="M219 0l-2 950h-229v115h229v141q0 147 72.5 208t226.5 61q106 0 170 -9v-127q-63 8 -141 9q-102 0 -139 -33t-37 -125v-125h301v-115h-301l2 -950h-152z" />
<glyph unicode="g" horiz-adv-x="1366" d="M1100 858v207h151v-1024q0 -113 -35.5 -201t-93 -142t-138.5 -88t-161 -47.5t-170 -13.5q-137 0 -240.5 26t-157.5 61.5t-89 89t-44 89t-13 81.5h139q10 -55 24.5 -87t54.5 -70t122.5 -56.5t209.5 -18.5q213 0 327 98.5t114 288.5v191h-4q-133 -242 -469 -242 q-106 0 -202.5 29.5t-181.5 91t-134.5 173.5t-49.5 261q0 229 148.5 386t433.5 157q160 0 281.5 -60.5t173.5 -179.5h4zM1104 555q0 178 -120 297t-335 119q-203 0 -320.5 -109.5t-117.5 -306.5q0 -221 123 -324.5t328 -103.5q195 0 318.5 114.5t123.5 313.5z" />
<glyph unicode="h" horiz-adv-x="1290" d="M117 0l-2 1475h151v-619h4q35 94 155 168t286 74q250 0 355 -116t105 -323l3 -659h-152l-2 686q0 285 -322 285q-217 0 -324.5 -102.5t-107.5 -290.5l2 -578h-151z" />
<glyph unicode="i" horiz-adv-x="376" d="M111 1249v226h151v-226h-151zM113 0l-2 1065h151l2 -1065h-151z" />
<glyph unicode="j" horiz-adv-x="376" d="M111 1249v226h151v-226h-151zM-154 -444v127q33 -6 103 -7q94 0 128 38t34 124v1227h151v-1227q0 -289 -272 -289q-3 1 -144 7z" />
<glyph unicode="k" horiz-adv-x="1175" d="M117 0l-2 1475h151v-928l649 518h226l-523 -403l564 -662h-201l-475 563l-240 -182l2 -381h-151z" />
<glyph unicode="l" horiz-adv-x="376" d="M113 0l-2 1475h151l2 -1475h-151z" />
<glyph unicode="m" horiz-adv-x="2048" d="M1780 0l-2 676q0 150 -77 222.5t-241 72.5q-174 0 -268 -92.5t-94 -249.5l2 -629h-152l-2 721q0 109 -77.5 179.5t-225.5 70.5q-168 0 -272.5 -96.5t-104.5 -274.5l2 -600h-151l-2 1065h151v-197h4q129 229 422 230q166 0 259 -68.5t122 -165.5q41 90 155.5 162t262.5 72 q217 0 327.5 -99.5t110.5 -271.5l2 -727h-151z" />
<glyph unicode="n" horiz-adv-x="1290" d="M1022 0l-2 686q0 285 -322 285q-217 0 -324.5 -102.5t-107.5 -290.5l2 -578h-151l-2 1065h151v-209h4q35 94 155 168t286 74q250 0 355 -116t105 -323l3 -659h-152z" />
<glyph unicode="o" d="M78 532.5q0 239.5 156.5 402.5t447.5 163t447.5 -163t156.5 -402.5t-156.5 -402.5t-447.5 -163t-447.5 163t-156.5 402.5zM229 532.5q0 -194.5 121 -316.5t332 -122t332 122t121 316.5t-121 316.5t-332 122t-332 -122t-121 -316.5z" />
<glyph unicode="p" horiz-adv-x="1366" d="M258 532q0 -180 114.5 -309t332.5 -129q184 0 306 120t122 318q0 180 -106.5 309.5t-321.5 129.5q-195 0 -321 -118t-126 -321zM115 -414v1479h151v-213h4q106 246 435 246q156 0 272.5 -51.5t181 -135.5t95 -179t30.5 -200q0 -240 -148.5 -402.5t-430.5 -162.5 q-145 0 -262 69.5t-173 176.5h-4v-627h-151z" />
<glyph unicode="q" horiz-adv-x="1366" d="M1104 532q0 203 -126 321t-321 118q-215 0 -321.5 -129t-106.5 -310q0 -199 122 -318.5t306 -119.5q217 0 332 129t115 309zM1096 852v213h151v-1479h-151v627h-4q-55 -106 -172 -176t-263 -70q-283 0 -431 163t-148 402q0 102 33.5 199.5t100.5 180.5t179.5 134.5 t253.5 51.5q178 0 294 -78t153 -168h4z" />
<glyph unicode="r" horiz-adv-x="757" d="M117 0l-2 1065h151v-244h4q25 55 53.5 97.5t75.5 86.5t118 68.5t161 24.5q59 0 90 -8v-156q-72 12 -139 12q-145 0 -254 -98t-109 -305l2 -543h-151z" />
<glyph unicode="s" horiz-adv-x="1138" d="M1047 750h-140q-29 125 -111.5 173t-254.5 48q-307 0 -308 -183q0 -80 74 -111.5t322 -64.5q258 -35 359.5 -96t101.5 -211q0 -162 -129.5 -250t-376.5 -88q-539 0 -539 367h139q20 -133 107.5 -186.5t292.5 -53.5q172 0 263 45t91 158q0 82 -83 122t-325 64 q-248 25 -348 91.5t-100 207.5q0 143 116.5 229.5t342.5 86.5q252 0 373 -88t133 -260z" />
<glyph unicode="t" horiz-adv-x="720" d="M217 1065v336h152v-336h301v-115h-301v-704q0 -74 31.5 -104.5t119.5 -30.5t150 12v-127q-86 -12 -166 -12q-168 0 -227.5 62.5t-59.5 201.5v702h-229v115h229z" />
<glyph unicode="u" horiz-adv-x="1290" d="M1022 0l-2 209h-4q-35 -94 -155 -168t-286 -74q-250 0 -355 116t-105 323v659h151v-686q0 -285 322 -285q217 0 324.5 102.5t107.5 290.5v578h151l3 -1065h-152z" />
<glyph unicode="v" horiz-adv-x="1138" d="M567 174l418 891h164l-498 -1065h-164l-499 1065h162z" />
<glyph unicode="w" horiz-adv-x="1820" d="M1313 199l342 866h164l-430 -1065h-164l-324 852l-315 -852h-164l-422 1065h162l338 -872l321 872h164z" />
<glyph unicode="x" horiz-adv-x="1175" d="M-6 0l487 553l-454 512h196l361 -406l358 406h199l-461 -512l502 -553h-201l-397 442l-391 -442h-199z" />
<glyph unicode="y" horiz-adv-x="1138" d="M584 178l401 887h164l-578 -1264q-57 -125 -121.5 -170t-189.5 -45h-74q-27 0 -71 4v127q66 -4 108 -4q84 0 130 27t81 104l70 148l-516 1073h162z" />
<glyph unicode="z" horiz-adv-x="1138" d="M41 0l-2 127l809 811h-762v127h979v-127l-825 -811h856l2 -127h-1057z" />
<glyph unicode="{" horiz-adv-x="720" d="M96 498v77q70 0 96.5 58.5t26.5 222.5v358q0 248 219 248h119v-78h-100q-51 0 -75 -35.5t-24 -134.5v-358q0 -145 -47 -224t-112 -93v-4q66 -14 112.5 -93.5t46.5 -224.5v-358q0 -98 24 -134t75 -36h100v-78h-119q-219 0 -219 248v358q0 164 -26.5 222.5t-96.5 58.5z" />
<glyph unicode="|" horiz-adv-x="454" d="M174 -37v1536h102v-1536h-102z" />
<glyph unicode="}" horiz-adv-x="720" d="M160 -389v78h100q49 0 73.5 36.5t24.5 133.5v358q0 145 47.5 224t112.5 94v4q-66 14 -113 93t-47 224v358q0 96 -24.5 133t-73.5 37h-100v78h119q219 0 219 -248v-358q0 -164 26.5 -222.5t96.5 -58.5v-77q-70 0 -96.5 -58.5t-26.5 -222.5v-358q0 -248 -219 -248h-119z " />
<glyph unicode="~" horiz-adv-x="1228" d="M1012 647l73 -74q-55 -84 -112.5 -130t-143.5 -46q-92 0 -208 68q-121 72 -236 72q-104 0 -172 -148l-74 74q86 176 256 176q78 0 228 -66l44 -19l47 -20l41 -17q24 -9 42 -13t34 -4q39 0 76 26.5t52.5 47t52.5 73.5z" />
<glyph unicode="&#xa1;" horiz-adv-x="606" d="M219 -365v388l37 696h90l37 -696v-388h-164zM213 872v226h176v-226h-176z" />
<glyph unicode="&#xa2;" d="M655 -254v223q-258 16 -400 169t-142 394q0 90 28.5 179.5t87 175.5t169 143t257.5 68v172h90v-172q121 -6 216.5 -45t151.5 -97.5t88 -118t42 -120.5h-151q-66 240 -347 254v-877q289 20 355 287h151q-8 -47 -27.5 -95t-58.5 -104.5t-93 -101.5t-139 -77t-188 -36v-221 h-90zM655 96v873q-195 -18 -293 -140t-98 -297q0 -186 101.5 -303t289.5 -133z" />
<glyph unicode="&#xa3;" d="M106 655v90h148q-98 164 -98 267q0 193 147.5 315.5t403.5 122.5q266 0 407 -126t141 -345h-151q0 178 -122 261t-288 83q-154 0 -270.5 -82t-116.5 -221q0 -51 20.5 -107.5t47 -105.5t31.5 -62h452v-90h-416q41 -88 41 -190q0 -78 -64.5 -178.5t-146.5 -155.5l4 -4 q141 57 232 57q55 0 215 -39t197 -39q131 0 301 134l51 -127q-39 -47 -144.5 -96.5t-207.5 -49.5q-76 0 -244 45t-227 45q-137 0 -285 -86l-72 117q102 72 177 175.5t75 209.5q0 51 -53 182h-185z" />
<glyph unicode="&#xa4;" d="M276 708.5q0 -165.5 120 -285.5t286 -120t285.5 120t119.5 285.5t-119.5 285.5t-285.5 120t-286 -120t-120 -285.5zM174 279l111 114q-111 131 -111 315.5t111 315.5l-111 115l78 78l113 -113q137 113 317 113t317 -113l113 113l78 -78l-111 -115q111 -131 111 -315.5 t-111 -315.5l111 -114l-78 -78l-113 112q-137 -113 -317 -112.5t-317 112.5l-113 -112z" />
<glyph unicode="&#xa5;" d="M606 397v197l-16 22h-406v103h328l-526 698h174l522 -696l522 696h176l-528 -698h328v-103h-406l-16 -22v-197h422v-102h-422l2 -295h-152l-2 295h-422v102h422z" />
<glyph unicode="&#xa6;" horiz-adv-x="454" d="M174 936v563h102v-563h-102zM174 -37v563h102v-563h-102z" />
<glyph unicode="&#xa7;" horiz-adv-x="1366" d="M238 698q0 -47 18 -81.5t49 -59.5t94.5 -55.5t129 -57t179 -77t220.5 -103.5q51 0 123.5 54.5t72.5 150.5q0 39 -13 70.5t-46 60.5t-68.5 52.5t-102.5 53.5l-124 54l-157 65q-99 41 -179 78q-51 -8 -123.5 -64.5t-72.5 -140.5zM197 35h151q6 -139 105.5 -201.5 t248.5 -62.5q121 0 205 48t84 140q0 86 -72.5 141.5t-238.5 126.5l-262 113q-164 70 -242 139.5t-78 182.5q0 49 11.5 92t33 72.5t43 52t49 38t46 24.5t38.5 17l23 7q-121 80 -121 206q0 141 103.5 234.5t328.5 93.5q211 0 341 -91t130 -280h-151q0 37 -13.5 74t-44 78 t-99 66.5t-163.5 25.5q-135 0 -207.5 -45t-72.5 -131q0 -82 78.5 -137t238.5 -119l268 -113q156 -66 231 -136t75 -199q0 -70 -23.5 -123.5t-70 -86t-74 -47t-76.5 -32.5q123 -86 123 -228q0 -137 -112.5 -234t-328.5 -97q-139 0 -237 30.5t-153.5 87t-82 123t-32.5 150.5z " />
<glyph unicode="&#xa8;" horiz-adv-x="376" d="M342 1260v225h152v-225h-152zM-119 1260v225h150v-225h-150z" />
<glyph unicode="&#xa9;" horiz-adv-x="1638" d="M49 731.5q0 317.5 225.5 542.5t543 225t542.5 -225t225 -542.5t-225 -543t-542.5 -225.5t-543 225.5t-225.5 543zM1116 573h115q-37 -150 -140.5 -239.5t-248.5 -89.5q-209 0 -337 139t-128 348q0 213 123 349.5t336 136.5q156 0 264 -85t131 -235h-115q-18 96 -93 156.5 t-187 60.5q-162 0 -253 -107.5t-91 -275.5q0 -160 95 -272.5t255 -112.5q111 0 184.5 63.5t89.5 163.5zM152 731.5q0 -282.5 192.5 -480.5t473 -198t473 198t192.5 482q0 281 -192.5 478.5t-473 197.5t-473 -197.5t-192.5 -480z" />
<glyph unicode="&#xaa;" horiz-adv-x="813" d="M821 885v-78q-74 -8 -94 -8q-35 0 -57.5 8t-32.5 25.5t-13 33t-3 37.5h-5q-18 -47 -89.5 -88t-219.5 -41q-104 0 -186 48t-82 145q0 106 88 153t272 56q135 4 174 18t39 53q0 61 -48 87t-169 26q-217 0 -225 -127h-102q12 109 86.5 163t244.5 54q168 0 242 -47t74 -143 v-312q0 -41 12 -56t43 -15q28 0 51 8zM612 1051v79q-25 -16 -125 -30.5t-139 -14.5q-117 -8 -155.5 -33.5t-38.5 -78.5q0 -121 182 -121q111 0 193.5 52.5t82.5 146.5z" />
<glyph unicode="&#xab;" horiz-adv-x="1024" d="M147 487v148l322 276v-157l-231 -193l231 -192v-158zM526 487v148l322 276v-157l-232 -193l232 -192v-158z" />
<glyph unicode="&#xac;" horiz-adv-x="1228" d="M1028 221v445h-934v102h1036v-547h-102z" />
<glyph unicode="&#xad;" horiz-adv-x="909" d="M139 485v152h623v-152h-623z" />
<glyph unicode="&#xae;" horiz-adv-x="1638" d="M633 1098v-328h227q215 0 215 166q0 162 -215 162h-227zM1096 274l-269 406h-194v-406h-103v914h351q297 0 297 -254q0 -211 -230 -254l275 -406h-127zM152 731.5q0 -282.5 192.5 -480.5t473 -198t473 198t192.5 482q0 281 -192.5 478.5t-473 197.5t-473 -197.5 t-192.5 -480zM49 731.5q0 317.5 225.5 542.5t543 225t542.5 -225t225 -542.5t-225 -543t-542.5 -225.5t-543 225.5t-225.5 543z" />
<glyph unicode="&#xaf;" horiz-adv-x="376" d="M-209 1315v115h789v-115h-789z" />
<glyph unicode="&#xb0;" horiz-adv-x="819" d="M205 1157q0 -86 58.5 -144.5t144.5 -58.5t144 58.5t58 144.5t-58 144.5t-144 58.5t-144.5 -58.5t-58.5 -144.5zM115 1157q0 123 85 208t207.5 85t207.5 -85t85 -208t-85 -208t-207.5 -85t-207.5 85t-85 208z" />
<glyph unicode="&#xb1;" horiz-adv-x="1228" d="M96 0l-2 102h1036l3 -102h-1037zM561 664v372h103v-372h466v-103h-466v-373h-103v373h-467v103h467z" />
<glyph unicode="&#xb2;" horiz-adv-x="888" d="M788 688v-102h-720q4 45 15 77.5t42 76.5t94.5 90.5t159.5 93.5q170 86 227.5 135t57.5 129q0 172 -220 172q-131 0 -186 -63.5t-55 -155.5h-115q0 309 356 309q174 0 254 -77t80 -185q0 -180 -215 -277q-205 -96 -272.5 -139t-83.5 -84h581z" />
<glyph unicode="&#xb3;" horiz-adv-x="888" d="M379 991v90q16 -4 29 -4h36q106 0 162 31t56 106q0 70 -58.5 108t-148.5 38q-125 0 -185.5 -53.5t-60.5 -143.5h-115q4 127 94.5 207t266.5 80q135 0 228 -57.5t93 -178.5q0 -63 -45 -113t-127 -61v-4q90 -4 149.5 -61t59.5 -152q0 -137 -99.5 -199.5t-246.5 -62.5 q-197 0 -296 70.5t-99 226.5h114q0 -207 287 -207q113 0 169 51.5t56 116.5q0 45 -19.5 77t-46 49.5t-74.5 27.5t-84 13t-95 5z" />
<glyph unicode="&#xb4;" horiz-adv-x="376" d="M55 1227l236 291h186l-297 -291h-125z" />
<glyph unicode="&#xb5;" horiz-adv-x="1290" d="M1022 0l-4 209h-4q-35 -94 -155 -168t-286 -74q-211 0 -309 103v-484h-149l-2 1479h151v-686q0 -150 90 -217.5t232 -67.5q217 0 324.5 102.5t107.5 290.5v578h151l5 -1065h-152z" />
<glyph unicode="&#xb6;" horiz-adv-x="1228" d="M508 -319v991q-178 0 -301 113.5t-123 275.5q0 195 120 298t337 103h444v-1781h-115v1691h-247v-1691h-115z" />
<glyph unicode="&#xb7;" horiz-adv-x="569" d="M145 639q0 55 40 95t95.5 40t95.5 -40t40 -95t-40 -95t-95.5 -40t-95.5 40t-40 95z" />
<glyph unicode="&#xb8;" horiz-adv-x="376" d="M47 -172l117 172h84l-86 -121l4 -4q35 10 82 10q80 0 128 -39t48 -104.5t-71.5 -110.5t-186.5 -45t-199 35l25 72q94 -29 166 -29q139 0 139 78q0 37 -33 55.5t-74 18.5q-70 0 -108 -23z" />
<glyph unicode="&#xb9;" horiz-adv-x="591" d="M297 586v626h-272v78h65q113 0 161 30t71 130h90v-864h-115z" />
<glyph unicode="&#xba;" horiz-adv-x="888" d="M49 1114q0 141 101.5 238.5t292 97.5t292 -97.5t101.5 -238.5q0 -145 -101.5 -242.5t-292 -97.5t-292 97.5t-101.5 242.5zM164 1114q0 -117 74.5 -183.5t203.5 -66.5t204 66.5t75 183.5q0 113 -75 179.5t-204 66.5t-203.5 -66.5t-74.5 -179.5z" />
<glyph unicode="&#xbb;" horiz-adv-x="1024" d="M782 561l-231 193v157l321 -276v-148l-321 -276v158zM403 561l-231 193v157l322 -276v-148l-322 -276v158z" />
<glyph unicode="&#xbc;" horiz-adv-x="2048" d="M297 586v626h-272v78h65q113 0 161 30t71 130h90v-864h-115zM358 -33l871 1483h127l-871 -1483h-127zM1671 0l-2 203h-487v90l499 571h103v-571h164v-90h-164l2 -203h-115zM1669 293v420h-4l-369 -420h373z" />
<glyph unicode="&#xbd;" horiz-adv-x="2048" d="M1948 102l2 -102h-721q4 45 15 78t40 78t92.5 90t161.5 92q170 86 227.5 135t57.5 129q0 172 -219 172q-131 0 -186.5 -62.5t-55.5 -150.5h-115q0 303 357 303q174 0 253.5 -76.5t79.5 -185.5q0 -180 -215 -276q-205 -96 -272.5 -139.5t-83.5 -84.5h582zM297 586v626 h-272v78h65q113 0 161 30t71 130h90v-864h-115zM358 -33l871 1483h127l-871 -1483h-127z" />
<glyph unicode="&#xbe;" horiz-adv-x="2048" d="M379 991v90q16 -4 29 -4h36q106 0 162 31t56 106q0 70 -58.5 108t-148.5 38q-125 0 -185.5 -53.5t-60.5 -143.5h-115q4 127 94.5 207t266.5 80q135 0 228 -57.5t93 -178.5q0 -63 -45 -113t-127 -61v-4q90 -4 149.5 -61t59.5 -152q0 -137 -99.5 -199.5t-246.5 -62.5 q-197 0 -296 70.5t-99 226.5h114q0 -207 287 -207q113 0 169 51.5t56 116.5q0 45 -19.5 77t-46 49.5t-74.5 27.5t-84 13t-95 5zM567 -33l871 1483h127l-871 -1483h-127zM1671 0l-2 203h-487v90l499 571h103v-571h164v-90h-164l2 -203h-115zM1669 293v420h-4l-369 -420h373z " />
<glyph unicode="&#xbf;" horiz-adv-x="1327" d="M788 1098v-226h-176v226h176zM1063 92h151q0 -213 -138 -353t-392 -140q-221 0 -375.5 107.5t-154.5 313.5q0 133 62.5 212t229.5 196q129 90 157 138t28 153h139v-91q0 -32 -15.5 -71t-21.5 -52t-52 -55t-70 -61l-109 -84q-55 -41 -78 -59.5t-57.5 -56t-48 -77.5 t-13.5 -92q0 -129 107.5 -205.5t271.5 -76.5q190 0 282.5 95t96.5 259z" />
<glyph unicode="&#xc0;" horiz-adv-x="1478" d="M1315 0l-197 444h-770l-196 -444h-164l661 1462h176l666 -1462h-176zM1057 584l-322 727l-325 -727h647zM578 1866l235 -291h-125l-295 291h185z" />
<glyph unicode="&#xc1;" horiz-adv-x="1478" d="M1315 0l-197 444h-770l-196 -444h-164l661 1462h176l666 -1462h-176zM1057 584l-322 727l-325 -727h647zM655 1575l236 291h186l-297 -291h-125z" />
<glyph unicode="&#xc2;" horiz-adv-x="1478" d="M1315 0l-197 444h-770l-196 -444h-164l661 1462h176l666 -1462h-176zM1057 584l-322 727l-325 -727h647zM367 1575l290 291h164l293 -291h-153l-222 207l-219 -207h-153z" />
<glyph unicode="&#xc3;" horiz-adv-x="1478" d="M1315 0l-197 444h-770l-196 -444h-164l661 1462h176l666 -1462h-176zM1057 584l-322 727l-325 -727h647zM1024 1831h90q-16 -88 -55 -143q-55 -78 -156 -78q-74 0 -184.5 53t-161.5 53q-94 0 -108 -106h-91q43 221 209 221q74 0 184.5 -53.5t161.5 -53.5q97 1 111 107z " />
<glyph unicode="&#xc4;" horiz-adv-x="1478" d="M1315 0l-197 444h-770l-196 -444h-164l661 1462h176l666 -1462h-176zM1057 584l-322 727l-325 -727h647zM891 1608v225h151v-225h-151zM430 1608v225h150v-225h-150z" />
<glyph unicode="&#xc5;" horiz-adv-x="1478" d="M1315 0l-197 444h-770l-196 -444h-164l661 1462h176l666 -1462h-176zM1057 584l-322 727l-325 -727h647zM588 1769.5q0 -61.5 43 -104.5t104.5 -43t104.5 43t43 104.5t-43 104.5t-104.5 43t-104.5 -43t-43 -104.5zM510 1769q0 92 65.5 156t159.5 64q92 0 159 -61.5 t67 -158t-67 -158t-159 -61.5q-96 0 -160.5 61.5t-64.5 157.5z" />
<glyph unicode="&#xc6;" horiz-adv-x="2238" d="M-47 0l936 1462h1274v-139h-932v-496h887v-139h-887v-549h942l2 -139h-1094l-2 475h-649l-301 -475h-176zM1079 614v709h-108l-455 -709h563z" />
<glyph unicode="&#xc7;" horiz-adv-x="1669" d="M1432 557h151q-25 -254 -221.5 -424t-501.5 -170h-8l-59 -84l4 -4q35 10 82 10q80 0 128 -39t48 -104.5t-72 -110.5t-186.5 -45t-198.5 35l25 72q94 -29 165 -29q139 0 140 78q0 37 -33 55.5t-74 18.5q-70 0 -108 -23l-35 35l94 139q-129 10 -235 49q-217 84 -336 268.5 t-119 446.5q0 106 25.5 209.5t84 206t145.5 179.5t222 125t301 48q125 0 239.5 -29.5t217 -90t170 -166t84.5 -244.5h-152q-31 197 -187.5 294t-371.5 97q-283 0 -448.5 -160t-165.5 -469q0 -127 34.5 -236.5t105.5 -199.5t192.5 -141.5t281.5 -51.5q492 0 572 455z" />
<glyph unicode="&#xc8;" horiz-adv-x="1402" d="M160 0l-2 1462h1163v-139h-1012v-496h975v-139h-975v-549h1028l2 -139h-1179zM590 1866l235 -291h-125l-294 291h184z" />
<glyph unicode="&#xc9;" horiz-adv-x="1402" d="M160 0l-2 1462h1163v-139h-1012v-496h975v-139h-975v-549h1028l2 -139h-1179zM692 1575l236 291h186l-297 -291h-125z" />
<glyph unicode="&#xca;" horiz-adv-x="1402" d="M160 0l-2 1462h1163v-139h-1012v-496h975v-139h-975v-549h1028l2 -139h-1179zM371 1575l291 291h163l293 -291h-153l-222 207l-219 -207h-153z" />
<glyph unicode="&#xcb;" horiz-adv-x="1402" d="M160 0l-2 1462h1163v-139h-1012v-496h975v-139h-975v-549h1028l2 -139h-1179zM907 1608v225h152v-225h-152zM446 1608v225h150v-225h-150z" />
<glyph unicode="&#xcc;" horiz-adv-x="454" d="M152 0l-2 1462h151l2 -1462h-151zM59 1866l236 -291h-125l-295 291h184z" />
<glyph unicode="&#xcd;" horiz-adv-x="454" d="M152 0l-2 1462h151l2 -1462h-151zM150 1575l235 291h186l-297 -291h-124z" />
<glyph unicode="&#xce;" horiz-adv-x="454" d="M152 0l-2 1462h151l2 -1462h-151zM-150 1575l291 291h164l293 -291h-154l-221 207l-219 -207h-154z" />
<glyph unicode="&#xcf;" horiz-adv-x="454" d="M152 0l-2 1462h151l2 -1462h-151zM383 1608v225h152v-225h-152zM-78 1608v225h150v-225h-150z" />
<glyph unicode="&#xd0;" horiz-adv-x="1593" d="M285 1323v-498h528v-114h-528v-572h553q219 0 354 139.5t135 452.5q0 592 -489 592h-553zM135 0l-2 711h-133v114h133v637h711q315 0 481 -191.5t166 -539.5q0 -322 -163 -526.5t-460 -204.5h-733z" />
<glyph unicode="&#xd1;" horiz-adv-x="1630" d="M135 0l-2 1462h182l1022 -1249h4v1249h152l2 -1462h-176l-1030 1249h-4l2 -1249h-152zM1116 1831h90q-16 -88 -55 -143q-55 -78 -156 -78q-74 0 -184.5 53t-161.5 53q-94 0 -108 -106h-90q43 221 208 221q74 0 184.5 -53.5t162.5 -53.5q96 1 110 107z" />
<glyph unicode="&#xd2;" horiz-adv-x="1744" d="M240 731q0 -160 52 -283.5t142 -197.5t200.5 -111t235.5 -37t236 37t201 111t142 197.5t52 283.5t-52 284t-142 197.5t-201 110.5t-236 37t-235.5 -37t-200.5 -110.5t-142 -197.5t-52 -284zM76 731.5q0 186.5 65.5 336t177 242.5t252 141t300 48t300 -48t252 -141 t177 -242.5t65.5 -336t-65.5 -336t-177 -243t-252 -141.5t-300 -48t-300 48t-252 141.5t-177 243t-65.5 336zM754 1866l235 -291h-125l-295 291h185z" />
<glyph unicode="&#xd3;" horiz-adv-x="1744" d="M240 731q0 -160 52 -283.5t142 -197.5t200.5 -111t235.5 -37t236 37t201 111t142 197.5t52 283.5t-52 284t-142 197.5t-201 110.5t-236 37t-235.5 -37t-200.5 -110.5t-142 -197.5t-52 -284zM76 731.5q0 186.5 65.5 336t177 242.5t252 141t300 48t300 -48t252 -141 t177 -242.5t65.5 -336t-65.5 -336t-177 -243t-252 -141.5t-300 -48t-300 48t-252 141.5t-177 243t-65.5 336zM791 1575l235 291h186l-297 -291h-124z" />
<glyph unicode="&#xd4;" horiz-adv-x="1744" d="M240 731q0 -160 52 -283.5t142 -197.5t200.5 -111t235.5 -37t236 37t201 111t142 197.5t52 283.5t-52 284t-142 197.5t-201 110.5t-236 37t-235.5 -37t-200.5 -110.5t-142 -197.5t-52 -284zM76 731.5q0 186.5 65.5 336t177 242.5t252 141t300 48t300 -48t252 -141 t177 -242.5t65.5 -336t-65.5 -336t-177 -243t-252 -141.5t-300 -48t-300 48t-252 141.5t-177 243t-65.5 336zM506 1575l291 291h164l292 -291h-153l-221 207l-220 -207h-153z" />
<glyph unicode="&#xd5;" horiz-adv-x="1744" d="M240 731q0 -160 52 -283.5t142 -197.5t200.5 -111t235.5 -37t236 37t201 111t142 197.5t52 283.5t-52 284t-142 197.5t-201 110.5t-236 37t-235.5 -37t-200.5 -110.5t-142 -197.5t-52 -284zM76 731.5q0 186.5 65.5 336t177 242.5t252 141t300 48t300 -48t252 -141 t177 -242.5t65.5 -336t-65.5 -336t-177 -243t-252 -141.5t-300 -48t-300 48t-252 141.5t-177 243t-65.5 336zM1163 1831h90q-16 -88 -55 -143q-55 -78 -156 -78q-74 0 -184 53t-162 53q-94 0 -108 -106h-90q43 221 209 221q74 0 184 -53.5t162 -53.5q96 1 110 107z" />
<glyph unicode="&#xd6;" horiz-adv-x="1744" d="M240 731q0 -160 52 -283.5t142 -197.5t200.5 -111t235.5 -37t236 37t201 111t142 197.5t52 283.5t-52 284t-142 197.5t-201 110.5t-236 37t-235.5 -37t-200.5 -110.5t-142 -197.5t-52 -284zM76 731.5q0 186.5 65.5 336t177 242.5t252 141t300 48t300 -48t252 -141 t177 -242.5t65.5 -336t-65.5 -336t-177 -243t-252 -141.5t-300 -48t-300 48t-252 141.5t-177 243t-65.5 336zM1034 1608v225h152v-225h-152zM573 1608v225h150v-225h-150z" />
<glyph unicode="&#xd7;" horiz-adv-x="1228" d="M610 590l391 391l74 -74l-391 -389l391 -389l-74 -74l-391 391l-387 -391l-73 74l389 389l-389 389l73 74z" />
<glyph unicode="&#xd8;" horiz-adv-x="1744" d="M76 25l188 182q-188 211 -188 524q0 186 65.5 336t177 243t252 141t299.5 48q330 0 545 -182l191 182l59 -61l-188 -181q188 -201 188 -526q0 -186 -65.5 -335.5t-177 -243t-252 -141.5t-300.5 -48q-324 0 -544 184l-191 -184zM1364 1149l-930 -897q164 -150 436 -150 q125 0 236 37t201 111t142 197.5t52 283.5q0 258 -137 418zM375 313l930 897q-168 150 -435 150q-125 0 -235.5 -37t-200.5 -110.5t-142 -197.5t-52 -284q0 -256 135 -418z" />
<glyph unicode="&#xd9;" horiz-adv-x="1593" d="M1448 1462v-897q0 -92 -11.5 -166.5t-52.5 -159.5t-108.5 -142.5t-191 -95.5t-289.5 -38t-290 38t-191.5 95.5t-108.5 142.5t-52.5 159.5t-11.5 166.5v897h152v-897q0 -137 41 -232t115.5 -143.5t157.5 -68t187.5 -19.5t187.5 19.5t157.5 68t115.5 143.5t41 232v897h152z M664 1866l235 -291h-125l-295 291h185z" />
<glyph unicode="&#xda;" horiz-adv-x="1593" d="M1448 1462v-897q0 -92 -11.5 -166.5t-52.5 -159.5t-108.5 -142.5t-191 -95.5t-289.5 -38t-290 38t-191.5 95.5t-108.5 142.5t-52.5 159.5t-11.5 166.5v897h152v-897q0 -137 41 -232t115.5 -143.5t157.5 -68t187.5 -19.5t187.5 19.5t157.5 68t115.5 143.5t41 232v897h152z M731 1575l236 291h186l-297 -291h-125z" />
<glyph unicode="&#xdb;" horiz-adv-x="1593" d="M1448 1462v-897q0 -92 -11.5 -166.5t-52.5 -159.5t-108.5 -142.5t-191 -95.5t-289.5 -38t-290 38t-191.5 95.5t-108.5 142.5t-52.5 159.5t-11.5 166.5v897h152v-897q0 -137 41 -232t115.5 -143.5t157.5 -68t187.5 -19.5t187.5 19.5t157.5 68t115.5 143.5t41 232v897h152z M422 1575l291 291h164l292 -291h-153l-221 207l-220 -207h-153z" />
<glyph unicode="&#xdc;" horiz-adv-x="1593" d="M1448 1462v-897q0 -92 -11.5 -166.5t-52.5 -159.5t-108.5 -142.5t-191 -95.5t-289.5 -38t-290 38t-191.5 95.5t-108.5 142.5t-52.5 159.5t-11.5 166.5v897h152v-897q0 -137 41 -232t115.5 -143.5t157.5 -68t187.5 -19.5t187.5 19.5t157.5 68t115.5 143.5t41 232v897h152z M963 1608v225h151v-225h-151zM502 1608v225h149v-225h-149z" />
<glyph unicode="&#xdd;" horiz-adv-x="1404" d="M627 0l-2 614l-656 848h195l536 -696l537 696h197l-658 -848l2 -614h-151zM631 1575l235 291h187l-297 -291h-125z" />
<glyph unicode="&#xde;" horiz-adv-x="1441" d="M160 0l-2 1462h151v-266h637q188 0 314 -102.5t126 -319.5q0 -209 -131 -317.5t-376 -108.5h-570l2 -348h-151zM309 1057v-570h586q180 0 254 74t74 213q0 156 -78 219.5t-219 63.5h-617z" />
<glyph unicode="&#xdf;" horiz-adv-x="1290" d="M543 735v133q68 -6 84 -6q342 0 342 242q0 125 -98.5 184.5t-243.5 59.5q-203 0 -282 -82t-79 -236l2 -1030h-151l-2 1036q0 215 121.5 327t390.5 112q141 0 243.5 -35t153.5 -93.5t73.5 -118t22.5 -122.5q0 -117 -67.5 -190.5t-178.5 -98.5v-4q31 -4 62 -13t81 -38 t86 -70t63.5 -115.5t27.5 -170.5q0 -199 -137 -319t-375 -120q-47 0 -156 17v125q82 -14 131 -15q188 0 286.5 92.5t98.5 239.5q0 166 -107.5 237.5t-316.5 71.5h-75z" />
<glyph unicode="&#xe0;" horiz-adv-x="1251" d="M246 737h-140q18 178 133 269.5t375 91.5t374 -79t114 -237v-557q0 -66 19.5 -92.5t64.5 -26.5q27 0 80 5v-103q-82 -16 -127 -16q-55 0 -90 16.5t-50.5 48t-19.5 58t-4 65.5h-4q-27 -39 -52.5 -65.5t-81 -65.5t-148.5 -60.5t-216 -21.5q-100 0 -189 28t-157 103.5 t-68 188.5q0 82 34 143.5t84 95t127 55t139.5 28.5t146.5 12q172 8 247.5 21t100.5 39t25 81q0 115 -81 162t-272 47q-184 0 -270 -53.5t-94 -180.5zM963 412v161q-45 -31 -134.5 -44t-339.5 -35q-139 -12 -208.5 -58.5t-69.5 -138.5q0 -215 307 -215q170 0 307.5 88 t137.5 242zM532 1518l236 -291h-125l-295 291h184z" />
<glyph unicode="&#xe1;" horiz-adv-x="1251" d="M246 737h-140q18 178 133 269.5t375 91.5t374 -79t114 -237v-557q0 -66 19.5 -92.5t64.5 -26.5q27 0 80 5v-103q-82 -16 -127 -16q-55 0 -90 16.5t-50.5 48t-19.5 58t-4 65.5h-4q-27 -39 -52.5 -65.5t-81 -65.5t-148.5 -60.5t-216 -21.5q-100 0 -189 28t-157 103.5 t-68 188.5q0 82 34 143.5t84 95t127 55t139.5 28.5t146.5 12q172 8 247.5 21t100.5 39t25 81q0 115 -81 162t-272 47q-184 0 -270 -53.5t-94 -180.5zM963 412v161q-45 -31 -134.5 -44t-339.5 -35q-139 -12 -208.5 -58.5t-69.5 -138.5q0 -215 307 -215q170 0 307.5 88 t137.5 242zM559 1227l236 291h186l-297 -291h-125z" />
<glyph unicode="&#xe2;" horiz-adv-x="1251" d="M246 737h-140q18 178 133 269.5t375 91.5t374 -79t114 -237v-557q0 -66 19.5 -92.5t64.5 -26.5q27 0 80 5v-103q-82 -16 -127 -16q-55 0 -90 16.5t-50.5 48t-19.5 58t-4 65.5h-4q-27 -39 -52.5 -65.5t-81 -65.5t-148.5 -60.5t-216 -21.5q-100 0 -189 28t-157 103.5 t-68 188.5q0 82 34 143.5t84 95t127 55t139.5 28.5t146.5 12q172 8 247.5 21t100.5 39t25 81q0 115 -81 162t-272 47q-184 0 -270 -53.5t-94 -180.5zM963 412v161q-45 -31 -134.5 -44t-339.5 -35q-139 -12 -208.5 -58.5t-69.5 -138.5q0 -215 307 -215q170 0 307.5 88 t137.5 242zM262 1227l291 291h164l293 -291h-154l-221 207l-219 -207h-154z" />
<glyph unicode="&#xe3;" horiz-adv-x="1251" d="M246 737h-140q18 178 133 269.5t375 91.5t374 -79t114 -237v-557q0 -66 19.5 -92.5t64.5 -26.5q27 0 80 5v-103q-82 -16 -127 -16q-55 0 -90 16.5t-50.5 48t-19.5 58t-4 65.5h-4q-27 -39 -52.5 -65.5t-81 -65.5t-148.5 -60.5t-216 -21.5q-100 0 -189 28t-157 103.5 t-68 188.5q0 82 34 143.5t84 95t127 55t139.5 28.5t146.5 12q172 8 247.5 21t100.5 39t25 81q0 115 -81 162t-272 47q-184 0 -270 -53.5t-94 -180.5zM963 412v161q-45 -31 -134.5 -44t-339.5 -35q-139 -12 -208.5 -58.5t-69.5 -138.5q0 -215 307 -215q170 0 307.5 88 t137.5 242zM920 1483h90q-16 -88 -56 -144q-55 -78 -155 -77q-74 0 -184.5 53t-161.5 53q-94 0 -109 -106h-90q43 221 209 221q74 0 184.5 -53.5t161.5 -53.5q97 1 111 107z" />
<glyph unicode="&#xe4;" horiz-adv-x="1251" d="M246 737h-140q18 178 133 269.5t375 91.5t374 -79t114 -237v-557q0 -66 19.5 -92.5t64.5 -26.5q27 0 80 5v-103q-82 -16 -127 -16q-55 0 -90 16.5t-50.5 48t-19.5 58t-4 65.5h-4q-27 -39 -52.5 -65.5t-81 -65.5t-148.5 -60.5t-216 -21.5q-100 0 -189 28t-157 103.5 t-68 188.5q0 82 34 143.5t84 95t127 55t139.5 28.5t146.5 12q172 8 247.5 21t100.5 39t25 81q0 115 -81 162t-272 47q-184 0 -270 -53.5t-94 -180.5zM963 412v161q-45 -31 -134.5 -44t-339.5 -35q-139 -12 -208.5 -58.5t-69.5 -138.5q0 -215 307 -215q170 0 307.5 88 t137.5 242zM788 1260v225h152v-225h-152zM328 1260v225h149v-225h-149z" />
<glyph unicode="&#xe5;" horiz-adv-x="1251" d="M246 737h-140q18 178 133 269.5t375 91.5t374 -79t114 -237v-557q0 -66 19.5 -92.5t64.5 -26.5q27 0 80 5v-103q-82 -16 -127 -16q-55 0 -90 16.5t-50.5 48t-19.5 58t-4 65.5h-4q-27 -39 -52.5 -65.5t-81 -65.5t-148.5 -60.5t-216 -21.5q-100 0 -189 28t-157 103.5 t-68 188.5q0 82 34 143.5t84 95t127 55t139.5 28.5t146.5 12q172 8 247.5 21t100.5 39t25 81q0 115 -81 162t-272 47q-184 0 -270 -53.5t-94 -180.5zM963 412v161q-45 -31 -134.5 -44t-339.5 -35q-139 -12 -208.5 -58.5t-69.5 -138.5q0 -215 307 -215q170 0 307.5 88 t137.5 242zM487 1433.5q0 -61.5 43 -104.5t104.5 -43t104.5 43t43 104.5t-43 104.5t-104.5 43t-104.5 -43t-43 -104.5zM410 1434q0 92 65.5 155.5t159.5 63.5q92 0 158.5 -61.5t66.5 -158t-66.5 -158t-158.5 -61.5q-96 0 -160.5 62t-64.5 158z" />
<glyph unicode="&#xe6;" horiz-adv-x="2199" d="M975 412v161q-45 -31 -134 -44t-339 -35q-139 -12 -209 -58.5t-70 -138.5q0 -215 307 -215q170 0 307.5 88t137.5 242zM1114 610h858q-31 184 -151.5 272.5t-286.5 88.5q-188 0 -296 -96.5t-124 -264.5zM2124 496h-1010q0 -180 113.5 -291t306.5 -111q178 0 274.5 60.5 t135.5 185.5h151q-51 -162 -187 -267.5t-374 -105.5q-201 0 -329 84t-169 203q-49 -115 -178 -201t-373 -86q-100 0 -189 28t-156.5 103.5t-67.5 188.5q0 82 33.5 143.5t84 95t127 55t139 28.5t146.5 12q172 8 248 21t100.5 39t24.5 81q0 115 -81 162t-271 47 q-184 0 -270.5 -53.5t-94.5 -180.5h-139q18 178 133 269.5t375 91.5q221 0 319 -53.5t146 -172.5q139 225 432 226q113 0 211 -28t189 -91.5t145.5 -187t54.5 -295.5z" />
<glyph unicode="&#xe7;" horiz-adv-x="1251" d="M1047 381h151q-8 -47 -28.5 -96t-62.5 -108.5t-99.5 -104.5t-147.5 -75t-201 -30h-4l-61 -88l4 -4q35 10 82 10q80 0 128 -39t48 -104.5t-71.5 -110.5t-186.5 -45t-199 35l25 72q92 -29 166 -29q139 0 139 78q0 37 -32.5 55.5t-73.5 18.5q-70 0 -109 -23l-35 35l96 143 q-94 8 -174 37q-164 61 -253 198.5t-89 325.5q0 252 155 409t445 157q131 0 232.5 -37t161 -97.5t93.5 -122t44 -124.5h-152q-66 254 -379 254q-219 0 -333.5 -122t-114.5 -317q0 -201 117.5 -319.5t330.5 -118.5q160 0 258.5 78t129.5 209z" />
<glyph unicode="&#xe8;" horiz-adv-x="1327" d="M1079 340h152q-51 -162 -190.5 -267.5t-383.5 -105.5q-156 0 -272.5 51.5t-181 135.5t-95 179t-30.5 199q0 240 148.5 403t430.5 163q113 0 211.5 -28t189.5 -91.5t145 -187t54 -295.5h-1028q0 -172 116 -287t312 -115q184 0 281.5 59.5t140.5 186.5zM229 610h877 q-31 184 -151.5 272.5t-286.5 88.5q-164 0 -290 -89.5t-149 -271.5zM539 1518l235 -291h-125l-295 291h185z" />
<glyph unicode="&#xe9;" horiz-adv-x="1327" d="M1079 340h152q-51 -162 -190.5 -267.5t-383.5 -105.5q-156 0 -272.5 51.5t-181 135.5t-95 179t-30.5 199q0 240 148.5 403t430.5 163q113 0 211.5 -28t189.5 -91.5t145 -187t54 -295.5h-1028q0 -172 116 -287t312 -115q184 0 281.5 59.5t140.5 186.5zM229 610h877 q-31 184 -151.5 272.5t-286.5 88.5q-164 0 -290 -89.5t-149 -271.5zM600 1227l236 291h186l-297 -291h-125z" />
<glyph unicode="&#xea;" horiz-adv-x="1327" d="M1079 340h152q-51 -162 -190.5 -267.5t-383.5 -105.5q-156 0 -272.5 51.5t-181 135.5t-95 179t-30.5 199q0 240 148.5 403t430.5 163q113 0 211.5 -28t189.5 -91.5t145 -187t54 -295.5h-1028q0 -172 116 -287t312 -115q184 0 281.5 59.5t140.5 186.5zM229 610h877 q-31 184 -151.5 272.5t-286.5 88.5q-164 0 -290 -89.5t-149 -271.5zM293 1227l291 291h164l292 -291h-153l-221 207l-220 -207h-153z" />
<glyph unicode="&#xeb;" horiz-adv-x="1327" d="M1079 340h152q-51 -162 -190.5 -267.5t-383.5 -105.5q-156 0 -272.5 51.5t-181 135.5t-95 179t-30.5 199q0 240 148.5 403t430.5 163q113 0 211.5 -28t189.5 -91.5t145 -187t54 -295.5h-1028q0 -172 116 -287t312 -115q184 0 281.5 59.5t140.5 186.5zM229 610h877 q-31 184 -151.5 272.5t-286.5 88.5q-164 0 -290 -89.5t-149 -271.5zM827 1260v225h152v-225h-152zM367 1260v225h149v-225h-149z" />
<glyph unicode="&#xec;" horiz-adv-x="376" d="M113 0l-2 1065h151l2 -1065h-151zM31 1518l235 -291h-125l-295 291h185z" />
<glyph unicode="&#xed;" horiz-adv-x="376" d="M113 0l-2 1065h151l2 -1065h-151zM115 1227l235 291h187l-297 -291h-125z" />
<glyph unicode="&#xee;" horiz-adv-x="376" d="M113 0l-2 1065h151l2 -1065h-151zM-184 1227l290 291h164l293 -291h-153l-222 207l-219 -207h-153z" />
<glyph unicode="&#xef;" horiz-adv-x="376" d="M113 0l-2 1065h151l2 -1065h-151zM342 1260v225h152v-225h-152zM-119 1260v225h150v-225h-150z" />
<glyph unicode="&#xf0;" d="M78 532.5q0 239.5 156.5 402.5t447.5 163q244 0 377 -178h6q-156 283 -397 401l-252 -117l-66 53l232 107q-94 53 -240 98l104 82q147 -43 277 -117l246 113l61 -55l-231 -107q231 -133 359 -374.5t128 -452.5q0 -63 -13 -132t-53 -153t-103.5 -147.5t-176.5 -107.5 t-258 -44q-291 0 -447.5 163t-156.5 402.5zM1135 532.5q0 194.5 -121 316.5t-332 122t-332 -122t-121 -316.5t121 -316.5t332 -122t332 122t121 316.5z" />
<glyph unicode="&#xf1;" horiz-adv-x="1290" d="M1022 0l-2 686q0 285 -322 285q-217 0 -324.5 -102.5t-107.5 -290.5l2 -578h-151l-2 1065h151v-209h4q35 94 155 168t286 74q250 0 355 -116t105 -323l3 -659h-152zM936 1483h90q-16 -88 -55 -144q-55 -78 -156 -77q-74 0 -184.5 53t-161.5 53q-94 0 -109 -106h-90 q43 221 209 221q74 0 184.5 -53.5t161.5 -53.5q97 1 111 107z" />
<glyph unicode="&#xf2;" d="M78 532.5q0 239.5 156.5 402.5t447.5 163t447.5 -163t156.5 -402.5t-156.5 -402.5t-447.5 -163t-447.5 163t-156.5 402.5zM229 532.5q0 -194.5 121 -316.5t332 -122t332 122t121 316.5t-121 316.5t-332 122t-332 -122t-121 -316.5zM545 1518l235 -291h-125l-295 291h185z " />
<glyph unicode="&#xf3;" d="M78 532.5q0 239.5 156.5 402.5t447.5 163t447.5 -163t156.5 -402.5t-156.5 -402.5t-447.5 -163t-447.5 163t-156.5 402.5zM229 532.5q0 -194.5 121 -316.5t332 -122t332 122t121 316.5t-121 316.5t-332 122t-332 -122t-121 -316.5zM612 1227l236 291h186l-297 -291h-125z " />
<glyph unicode="&#xf4;" d="M78 532.5q0 239.5 156.5 402.5t447.5 163t447.5 -163t156.5 -402.5t-156.5 -402.5t-447.5 -163t-447.5 163t-156.5 402.5zM229 532.5q0 -194.5 121 -316.5t332 -122t332 122t121 316.5t-121 316.5t-332 122t-332 -122t-121 -316.5zM309 1227l291 291h164l293 -291h-154 l-221 207l-219 -207h-154z" />
<glyph unicode="&#xf5;" d="M78 532.5q0 239.5 156.5 402.5t447.5 163t447.5 -163t156.5 -402.5t-156.5 -402.5t-447.5 -163t-447.5 163t-156.5 402.5zM229 532.5q0 -194.5 121 -316.5t332 -122t332 122t121 316.5t-121 316.5t-332 122t-332 -122t-121 -316.5zM971 1483h90q-16 -88 -55 -144 q-55 -78 -156 -77q-74 0 -184.5 53t-161.5 53q-94 0 -109 -106h-90q43 221 209 221q74 0 184.5 -53.5t161.5 -53.5q97 1 111 107z" />
<glyph unicode="&#xf6;" d="M78 532.5q0 239.5 156.5 402.5t447.5 163t447.5 -163t156.5 -402.5t-156.5 -402.5t-447.5 -163t-447.5 163t-156.5 402.5zM229 532.5q0 -194.5 121 -316.5t332 -122t332 122t121 316.5t-121 316.5t-332 122t-332 -122t-121 -316.5zM838 1260v225h151v-225h-151zM377 1260 v225h149v-225h-149z" />
<glyph unicode="&#xf7;" horiz-adv-x="1228" d="M500 96q0 47 32.5 80t79.5 33t80 -33t33 -80t-33 -79.5t-80 -32.5t-79.5 32.5t-32.5 79.5zM500 940q0 47 32.5 80t79.5 33t80 -33t33 -80t-33 -80t-80 -33t-79.5 33t-32.5 80zM94 467v102h1036v-102h-1036z" />
<glyph unicode="&#xf8;" d="M1040 817l-667 -620q115 -102 309 -103q211 0 332 122t121 316q-1 172 -95 285zM78 20l139 130q-139 152 -139 382q0 240 156.5 403t447.5 163q258 0 414 -133l141 133l49 -54l-139 -129q139 -152 139 -383q0 -240 -156.5 -402.5t-447.5 -162.5q-254 0 -414 133 l-141 -133zM324 248l667 620q-119 102 -309 103q-211 0 -332 -122t-121 -317q1 -169 95 -284z" />
<glyph unicode="&#xf9;" horiz-adv-x="1290" d="M1022 0l-2 209h-4q-35 -94 -155 -168t-286 -74q-250 0 -355 116t-105 323v659h151v-686q0 -285 322 -285q217 0 324.5 102.5t107.5 290.5v578h151l3 -1065h-152zM502 1518l235 -291h-125l-295 291h185z" />
<glyph unicode="&#xfa;" horiz-adv-x="1290" d="M1022 0l-2 209h-4q-35 -94 -155 -168t-286 -74q-250 0 -355 116t-105 323v659h151v-686q0 -285 322 -285q217 0 324.5 102.5t107.5 290.5v578h151l3 -1065h-152zM573 1227l236 291h186l-297 -291h-125z" />
<glyph unicode="&#xfb;" horiz-adv-x="1290" d="M1022 0l-2 209h-4q-35 -94 -155 -168t-286 -74q-250 0 -355 116t-105 323v659h151v-686q0 -285 322 -285q217 0 324.5 102.5t107.5 290.5v578h151l3 -1065h-152zM266 1227l291 291h164l293 -291h-154l-221 207l-219 -207h-154z" />
<glyph unicode="&#xfc;" horiz-adv-x="1290" d="M1022 0l-2 209h-4q-35 -94 -155 -168t-286 -74q-250 0 -355 116t-105 323v659h151v-686q0 -285 322 -285q217 0 324.5 102.5t107.5 290.5v578h151l3 -1065h-152zM795 1260v225h151v-225h-151zM334 1260v225h149v-225h-149z" />
<glyph unicode="&#xfd;" horiz-adv-x="1138" d="M584 178l401 887h164l-578 -1264q-57 -125 -121.5 -170t-189.5 -45h-74q-27 0 -71 4v127q66 -4 108 -4q84 0 130 27t81 104l70 148l-516 1073h162zM518 1227l236 291h186l-297 -291h-125z" />
<glyph unicode="&#xfe;" horiz-adv-x="1366" d="M258 532q0 -180 114.5 -309t332.5 -129q184 0 306 120t122 318q0 180 -106.5 309.5t-321.5 129.5q-195 0 -321 -118t-126 -321zM115 -414v1889h151v-623h4q27 47 50.5 78t73.5 76t129 68.5t182 23.5q156 0 272.5 -51.5t181 -135.5t95 -179t30.5 -200 q0 -240 -148.5 -402.5t-430.5 -162.5q-145 0 -262 69.5t-173 176.5h-4v-627h-151z" />
<glyph unicode="&#xff;" horiz-adv-x="1138" d="M584 178l401 887h164l-578 -1264q-57 -125 -121.5 -170t-189.5 -45h-74q-27 0 -71 4v127q66 -4 108 -4q84 0 130 27t81 104l70 148l-516 1073h162zM741 1260v225h152v-225h-152zM281 1260v225h149v-225h-149z" />
<glyph unicode="&#x152;" horiz-adv-x="2390" d="M1262 0l-2 160q-168 -197 -459 -197q-317 0 -521 198.5t-204 569.5q0 203 78.5 374t247.5 282.5t399 111.5q313 0 454 -176h5v139h1054v-139h-903v-496h856v-139h-856v-549h913l3 -139h-1065zM1260 365v763q0 20 -28 56.5t-80 77.5t-146.5 69.5t-204.5 28.5 q-240 0 -400.5 -167t-160.5 -462q0 -309 154.5 -469t406.5 -160q111 0 204 33t145 78t81 86t29 66z" />
<glyph unicode="&#x153;" horiz-adv-x="2238" d="M1204 610h821q-31 182 -146.5 271.5t-254.5 89.5q-182 0 -284.5 -86.5t-135.5 -274.5zM209 532.5q0 -194.5 117.5 -316.5t316.5 -122q197 -4 309.5 109.5t112.5 328.5q0 190 -103.5 314.5t-312.5 124.5q-205 0 -322.5 -122t-117.5 -316.5zM1999 340h151 q-49 -158 -184 -265.5t-342 -107.5q-174 0 -311 71t-189 210q-152 -281 -512 -281q-250 0 -402.5 162t-152.5 403q0 233 154 399.5t410 166.5q215 0 328.5 -75t185.5 -212q55 129 179 208t310 79q72 0 142.5 -15.5t147.5 -58.5t133 -107.5t93 -174t37 -246.5h-973 q10 -401 420 -402q293 0 375 246z" />
<glyph unicode="&#x178;" horiz-adv-x="1404" d="M627 0l-2 614l-656 848h195l536 -696l537 696h197l-658 -848l2 -614h-151zM854 1608v225h152v-225h-152zM393 1608v225h150v-225h-150z" />
<glyph unicode="&#x2c6;" horiz-adv-x="376" d="M-186 1227l290 291h164l293 -291h-153l-222 207l-219 -207h-153z" />
<glyph unicode="&#x2dc;" horiz-adv-x="376" d="M475 1483h90q-16 -88 -55 -144q-55 -78 -156 -77q-74 0 -184.5 53t-161.5 53q-94 0 -108 -106h-90q43 221 208 221q74 0 184.5 -53.5t162.5 -53.5q96 1 110 107z" />
<glyph unicode="&#x2000;" horiz-adv-x="993" />
<glyph unicode="&#x2001;" horiz-adv-x="1988" />
<glyph unicode="&#x2002;" horiz-adv-x="993" />
<glyph unicode="&#x2003;" horiz-adv-x="1988" />
<glyph unicode="&#x2004;" horiz-adv-x="661" />
<glyph unicode="&#x2005;" horiz-adv-x="495" />
<glyph unicode="&#x2006;" horiz-adv-x="329" />
<glyph unicode="&#x2007;" horiz-adv-x="329" />
<glyph unicode="&#x2008;" horiz-adv-x="247" />
<glyph unicode="&#x2009;" horiz-adv-x="397" />
<glyph unicode="&#x200a;" horiz-adv-x="108" />
<glyph unicode="&#x2010;" horiz-adv-x="909" d="M139 485v152h623v-152h-623z" />
<glyph unicode="&#x2011;" horiz-adv-x="909" d="M139 485v152h623v-152h-623z" />
<glyph unicode="&#x2012;" horiz-adv-x="909" d="M139 485v152h623v-152h-623z" />
<glyph unicode="&#x2013;" horiz-adv-x="1024" d="M0 498v127h1022v-127h-1022z" />
<glyph unicode="&#x2014;" horiz-adv-x="2048" d="M0 498v127h2046v-127h-2046z" />
<glyph unicode="&#x2018;" horiz-adv-x="569" d="M195 950v230q0 229 194 282v-78q-57 -27 -74.5 -73.5t-17.5 -134.5h74v-226h-176z" />
<glyph unicode="&#x2019;" horiz-adv-x="569" d="M195 1237v225h176v-229q0 -229 -195 -283v78q57 27 74.5 74t17.5 135h-73z" />
<glyph unicode="&#x201a;" horiz-adv-x="569" d="M197 0l-2 225h176v-229q0 -229 -195 -283v78q57 27 74.5 74t19.5 135h-73z" />
<glyph unicode="&#x201c;" horiz-adv-x="833" d="M143 950v230q0 229 195 282v-78q-57 -27 -74.5 -73.5t-17.5 -134.5h73v-226h-176zM510 950v230q0 229 195 282v-78q-57 -27 -75 -73.5t-18 -134.5h74v-226h-176z" />
<glyph unicode="&#x201d;" horiz-adv-x="833" d="M143 1237v225h176v-229q0 -229 -194 -283v78q57 27 74.5 74t17.5 135h-74zM510 1237v225h176v-229q0 -229 -194 -283v78q57 27 74.5 74t17.5 135h-74z" />
<glyph unicode="&#x201e;" horiz-adv-x="833" d="M512 0l-2 225h176v-229q0 -229 -194 -283v78q57 27 74.5 74t19.5 135h-74zM145 0l-2 225h176v-229q0 -229 -194 -283v78q57 27 74.5 74t19.5 135h-74z" />
<glyph unicode="&#x2022;" horiz-adv-x="1026" d="M145 731.5q0 151.5 106.5 259t258.5 107.5t259.5 -107.5t107.5 -259t-107.5 -258t-259.5 -106.5t-258.5 106.5t-106.5 258z" />
<glyph unicode="&#x2026;" horiz-adv-x="2048" d="M1618 0l-2 225h176l2 -225h-176zM936 0l-2 225h176l2 -225h-176zM254 0l-2 225h176l2 -225h-176z" />
<glyph unicode="&#x202f;" horiz-adv-x="397" />
<glyph unicode="&#x2039;" horiz-adv-x="645" d="M147 487v148l322 276v-157l-231 -193l231 -192v-158z" />
<glyph unicode="&#x203a;" horiz-adv-x="645" d="M403 561l-231 193v157l322 -276v-148l-322 -276v158z" />
<glyph unicode="&#x205f;" horiz-adv-x="495" />
<glyph unicode="&#x20ac;" d="M1346 1255l-78 -122q-55 92 -148 137q-102 53 -266 53q-248 0 -369 -139q-82 -94 -106 -250h780l-57 -103h-737q-10 -111 0 -219h624l-57 -102h-557q25 -164 106 -266q119 -150 355 -150q170 0 305 72q102 57 176 149v-176q-74 -70 -156 -106q-147 -66 -334 -66 q-301 0 -462 197q-117 141 -142 346h-205l58 102h137q-10 109 0 219h-195l58 103h151q33 203 156 338q160 178 475 178q195 0 326 -64q94 -45 162 -131z" />
<glyph unicode="&#x2122;" horiz-adv-x="2027" d="M1337 778l262 684h177v-844h-103v754h-4l-305 -754h-61l-306 754h-4v-754h-102v844h176zM360 618v754h-276v90h655v-90h-276v-754h-103z" />
<glyph unicode="&#xe000;" horiz-adv-x="1065" d="M0 1065h1065v-1065h-1065v1065z" />
<glyph unicode="&#xfb01;" horiz-adv-x="1024" d="M758 1249v226h151v-226h-151zM760 0l-2 1065h151l2 -1065h-151zM219 0l-2 950h-229v115h229v141q0 147 72.5 208t226.5 61q106 0 170 -9v-127q-63 8 -141 9q-102 0 -139 -33t-37 -125v-125h301v-115h-301l2 -950h-152z" />
<glyph unicode="&#xfb02;" horiz-adv-x="1024" d="M219 0l-2 950h-229v115h229v141q0 147 72.5 208t226.5 61q106 0 170 -9v-127q-63 8 -141 9q-102 0 -139 -33t-37 -125v-125h301v-115h-301l2 -950h-152zM760 0l-2 1475h151l2 -1475h-151z" />
<glyph unicode="&#xfb03;" horiz-adv-x="1667" d="M1401 1249v226h151v-226h-151zM1403 0l-2 1065h151l2 -1065h-151zM864 0l-2 950h-229v115h229v141q0 147 72.5 208t226.5 61q106 0 170 -9v-127q-63 8 -141 9q-102 0 -139 -33t-37 -125v-125h301v-115h-301l2 -950h-152zM219 0l-2 950h-229v115h229v141q0 147 72.5 208 t226.5 61q106 0 170 -9v-127q-63 8 -141 9q-102 0 -139 -33t-37 -125v-125h301v-115h-301l2 -950h-152z" />
<glyph unicode="&#xfb04;" horiz-adv-x="1667" d="M1403 0l-2 1475h151l2 -1475h-151zM864 0l-2 950h-229v115h229v141q0 147 72.5 208t226.5 61q106 0 170 -9v-127q-63 8 -141 9q-102 0 -139 -33t-37 -125v-125h301v-115h-301l2 -950h-152zM219 0l-2 950h-229v115h229v141q0 147 72.5 208t226.5 61q106 0 170 -9v-127 q-63 8 -141 9q-102 0 -139 -33t-37 -125v-125h301v-115h-301l2 -950h-152z" />
</font>
</defs>
</svg>
